# xmcd
#
# Track frame offsets:
#	150
#	11585
#	25562
#	37625
#	49658
#	63530
#	75574
#	88629
#	101641
#	115376
#	129854
#	144195
#	154086
#	167584
#	181366
#	193819
#	206928
#	220032
#	231973
#	244501
#	256873
#	268528
#
# Disc length: 3728 seconds
#
# Revision: 0
# Processed by: cddbd v1.5.2PL0 Copyright (c) Steve Scherf et al.
# Submitted via: dBpowerAMP V4.0
#
DISCID=1d0e8e16
DTITLE=john lee hooker - from detroit to chicago 1954-1958
DYEAR=1900
DGENRE=
TTITLE0=shake, holler and run
TTITLE1=taxi driver
TTITLE2=i'm ready
TTITLE3=hug and squeeze you
TTITLE4=boogie rambler
TTITLE5=no more doggin'
TTITLE6=unfriendly woman
TTITLE7=manbo chillun
TTITLE8=time is marching
TTITLE9=i'm so worried baby
TTITLE10=baby lee
TTITLE11=dimples
TTITLE12=every night
TTITLE13=the road is so rough
TTITLE14=trouble blues
TTITLE15=i'm so excited
TTITLE16=I see you when you're weak
TTITLE17=little wheel
TTITLE18=rosie mae
TTITLE19=you can lead me baby
TTITLE20=I love you honey
TTITLE21=you've taken my woman
EXTD=
EXTT0=
EXTT1=
EXTT2=
EXTT3=
EXTT4=
EXTT5=
EXTT6=
EXTT7=
EXTT8=
EXTT9=
EXTT10=
EXTT11=
EXTT12=
EXTT13=
EXTT14=
EXTT15=
EXTT16=
EXTT17=
EXTT18=
EXTT19=
EXTT20=
EXTT21=
PLAYORDER=
